<svg xmlns="http://www.w3.org/2000/svg" width="65" height="48" viewBox="0 0 65 48" fill="none"><g clip-path="url(#clip0_3608_68951)"><path fill-rule="evenodd" clip-rule="evenodd" d="M23.6128 47.9989H26.3738V43.0184H35.2653V35.2796H27.4443V40.2367H26.3419V35.2759H18.5332V43.0184H23.6128V47.9989ZM21.1312 37.918H23.6128V40.3959H21.1312V37.918ZM30.0582 37.7551H32.5399V40.2367H30.0582V37.7551Z" fill="#004E89"></path><path fill-rule="evenodd" clip-rule="evenodd" d="M9.02446 35.1912H0.709864V37.8676H6.30886V40.3419H0.666992V43.0182H9.02446V35.1912Z" fill="#004E89"></path><path fill-rule="evenodd" clip-rule="evenodd" d="M43.4436 35.1912H36.4237V37.8676H40.7108V40.3418H36.3857V43.0182H65.0005V35.3014H57.1833V40.3455H56.038V35.212H44.557V37.9068H45.7158V40.3382H43.4436V35.1912ZM52.2494 37.9104H53.3653V40.3418H52.2518V40.2365V37.9092L52.2494 37.9104ZM48.4412 37.9104H49.5546V40.3418H48.4412V37.9104ZM59.7862 37.9276H62.2641V40.3418H59.7813L59.7862 37.9276Z" fill="#004E89"></path><path d="M35.2641 30.4595H32.1309V33.5928H35.2641V30.4595Z" fill="#004E89"></path><path fill-rule="evenodd" clip-rule="evenodd" d="M9.89941 30.4607V39.34H12.6236V30.4607H9.89941ZM9.89941 40.2929H14.9435V30.4607H17.6199V42.9767H9.90309L9.89941 40.2929Z" fill="#004E89"></path><path fill-rule="evenodd" clip-rule="evenodd" d="M23.6128 47.9987H26.3738V43.0182H35.2653V38.567C34.4593 38.5555 33.6488 38.5498 32.8339 38.5498H32.5399V40.2365H30.0582V38.567C29.1829 38.5792 28.3132 38.598 27.4492 38.6233V40.234H26.3468V38.66C25.4273 38.6919 24.514 38.7299 23.6067 38.774V40.3957H21.1312V38.9136C20.2583 38.9691 19.3923 39.0304 18.5332 39.0973V43.017H23.6128V47.9987Z" fill="url(#paint0_linear_3608_68951)"></path><path fill-rule="evenodd" clip-rule="evenodd" d="M0.666992 41.5804V43.0184H9.02446V40.1265C6.08226 40.5393 3.28827 41.028 0.666992 41.5804Z" fill="url(#paint1_linear_3608_68951)"></path><path fill-rule="evenodd" clip-rule="evenodd" d="M40.7072 38.7129V40.342H36.3857V43.0184H65.0005V41.5804C62.5409 41.061 59.927 40.6005 57.1833 40.2048V40.342H56.038V40.0444C55.1593 39.9243 54.2684 39.8112 53.3653 39.7051V40.342H52.2518V40.2367V39.5789C51.3642 39.4809 50.4659 39.3894 49.557 39.3045V40.342H48.4436V39.2053C47.5454 39.1285 46.6369 39.0575 45.7182 38.9922V40.3396H43.4436V38.8489C42.5396 38.7966 41.6275 38.7513 40.7072 38.7129Z" fill="url(#paint2_linear_3608_68951)"></path><path fill-rule="evenodd" clip-rule="evenodd" d="M14.9428 39.4171C15.8247 39.3289 16.7168 39.2472 17.6192 39.1721V42.9766H9.90234V40.2929H14.9465L14.9428 39.4171Z" fill="url(#paint3_linear_3608_68951)"></path><path fill-rule="evenodd" clip-rule="evenodd" d="M41.1827 8.27785L36.9727 12.4878L45.193 20.7081L41.0541 24.8482L32.8338 16.628L24.6135 24.8482L20.4746 20.7081L41.1827 0L61.8908 20.7081L57.7519 24.8482L41.1827 8.27785Z" fill="#004E89"></path><path fill-rule="evenodd" clip-rule="evenodd" d="M24.4835 8.27785L7.91431 24.8482L3.77539 20.7081L24.4835 0L30.9264 6.44295L26.7875 10.5819L24.4835 8.27785Z" fill="#004E89"></path><path fill-rule="evenodd" clip-rule="evenodd" d="M46.4307 13.5254C51.9384 15.0341 57.155 17.4536 61.8644 20.6837L61.8913 20.7106L57.7536 24.8483L46.4307 13.5254Z" fill="url(#paint4_linear_3608_68951)"></path><path fill-rule="evenodd" clip-rule="evenodd" d="M29.3588 11.8239C30.5077 11.7467 31.6653 11.7014 32.8338 11.7014C34.4262 11.7014 35.9904 11.7774 37.5399 11.9182L36.9727 12.4854L45.193 20.7056L41.0541 24.8482L32.8338 16.628L24.6135 24.8482L20.4746 20.7093L29.3588 11.8239Z" fill="url(#paint5_linear_3608_68951)"></path><path fill-rule="evenodd" clip-rule="evenodd" d="M19.2373 13.5254L7.91431 24.8483L3.77539 20.7094L3.80356 20.6837C8.5127 17.4532 13.7293 15.0337 19.2373 13.5254Z" fill="url(#paint6_linear_3608_68951)"></path></g><defs><linearGradient id="paint0_linear_3608_68951" x1="26.8992" y1="43.2742" x2="26.8992" y2="28.3072" gradientUnits="userSpaceOnUse"><stop stop-color="#004E89"></stop><stop offset="1" stop-color="white"></stop></linearGradient><linearGradient id="paint1_linear_3608_68951" x1="4.84634" y1="43.2744" x2="4.84634" y2="28.3062" gradientUnits="userSpaceOnUse"><stop stop-color="#004E89"></stop><stop offset="1" stop-color="white"></stop></linearGradient><linearGradient id="paint2_linear_3608_68951" x1="50.6901" y1="43.2744" x2="50.6901" y2="28.3074" gradientUnits="userSpaceOnUse"><stop stop-color="#004E89"></stop><stop offset="1" stop-color="white"></stop></linearGradient><linearGradient id="paint3_linear_3608_68951" x1="13.7583" y1="43.2743" x2="13.7583" y2="28.3061" gradientUnits="userSpaceOnUse"><stop stop-color="#004E89"></stop><stop offset="1" stop-color="white"></stop></linearGradient><linearGradient id="paint4_linear_3608_68951" x1="54.161" y1="24.0019" x2="54.1622" y2="-4.48058" gradientUnits="userSpaceOnUse"><stop stop-color="#004E89"></stop><stop offset="1" stop-color="white"></stop></linearGradient><linearGradient id="paint5_linear_3608_68951" x1="32.8338" y1="23.8671" x2="32.8338" y2="-9.19776" gradientUnits="userSpaceOnUse"><stop stop-color="#004E89"></stop><stop offset="1" stop-color="white"></stop></linearGradient><linearGradient id="paint6_linear_3608_68951" x1="11.5069" y1="24.0032" x2="11.5069" y2="-4.48181" gradientUnits="userSpaceOnUse"><stop stop-color="#004E89"></stop><stop offset="1" stop-color="white"></stop></linearGradient><clipPath id="clip0_3608_68951"><rect width="64.3328" height="48" fill="white" transform="translate(0.666992)"></rect></clipPath></defs></svg>